<svg width="64" height="64" viewBox="0 0 64 64" fill="none" xmlns="http://www.w3.org/2000/svg">
<path d="M22.8016 41.2009C28.2016 46.6009 26.1016 57.5009 22.5016 61.2009C18.8016 64.9009 19.3016 55.6009 13.9016 50.2009C8.50156 44.8009 -0.798436 45.2009 2.90156 41.6009C6.50156 37.9009 17.4016 35.8009 22.8016 41.2009Z" fill="#F2B5B5"/>
<path d="M2.80078 41.4993C2.80078 41.4993 8.90078 41.7993 9.90078 46.5993C10.5008 48.9993 9.20078 51.1993 11.0008 52.9993C12.8008 54.7993 15.0008 53.4993 17.3008 54.0993C22.1008 55.1993 22.4008 61.1993 22.4008 61.1993C26.1008 57.4993 28.2008 46.5993 22.7008 41.1993C17.4008 35.7993 6.50078 37.8993 2.80078 41.4993Z" fill="#FFE6E8"/>
<path d="M41.2013 22.8C35.8013 17.4 37.9013 6.5 41.5013 2.8C45.2013 -0.899998 44.7013 8.4 50.1013 13.8C55.5013 19.2 64.8013 18.8 61.1013 22.4C57.5013 26.1 46.6013 28.2 41.2013 22.8Z" fill="#F2B5B5"/>
<path d="M61.2001 22.5C61.2001 22.5 55.1001 22.2 54.1001 17.4C53.6001 15.1 54.9001 12.9 53.1001 11.1C51.3001 9.3 49.1001 10.6 46.8001 10.1C42.0001 9 41.7001 3 41.7001 3C38.0001 6.7 35.9001 17.6 41.4001 23C46.6001 28.2 57.5001 26.1 61.2001 22.5Z" fill="#FFE6E8"/>
<path d="M32.0012 31.9996C29.2012 33.9996 25.2012 33.6996 22.7012 31.1996C20.5012 28.9996 20.0012 25.7996 21.2012 23.0996C17.7012 27.3996 17.1012 33.2996 19.5012 38.0996C28.0012 40.1996 30.4012 33.8996 32.0012 31.9996Z" fill="#F0154F"/>
<path d="M31.9998 31.9992C29.9998 29.1992 30.2998 25.1992 32.8998 22.6992C35.0998 20.4992 38.2998 19.9992 40.8998 21.1992C36.5998 17.6992 30.6998 17.0992 25.8998 19.4992C23.6998 27.9992 30.0998 30.3992 31.9998 31.9992Z" fill="#F0154F"/>
<path d="M32 31.9998C34.9 30.0998 38.8 30.2998 41.3 32.7998C43.5 34.9998 44 38.0998 42.9 40.7998C46.3 36.4998 46.9 30.6998 44.6 25.8998C36 23.7998 33.6 30.0998 32 31.9998Z" fill="#F0154F"/>
<path d="M32.0992 32.1992C33.9992 34.9992 33.6992 38.8992 31.1992 41.3992C28.9992 43.5992 25.8992 44.0992 23.1992 42.9992C27.4992 46.4992 33.2992 46.9992 38.0992 44.6992C40.1992 36.0992 34.0992 33.6992 32.0992 32.1992Z" fill="#F0154F"/>
<path d="M41.6984 21.9C41.3984 21.6 41.0984 21.4 40.7984 21.1C38.0984 20 34.9984 20.5 32.7984 22.6C30.2984 25.2 29.9984 29.1 31.9984 32C30.0984 30.5 23.7984 28.1 25.8984 19.5C25.4984 19.7 25.1984 19.9 24.7984 20.1C23.7984 20.7 22.8984 21.4 22.0984 22.2L21.8984 22.4C21.5984 22.7 21.3984 23 21.0984 23.3C19.8984 26 20.3984 29.2 22.5984 31.4C25.0984 33.9 29.0984 34.2 31.8984 32.2C30.3984 34 27.9984 40.4 19.3984 38.3C19.5984 38.7 19.7984 39.1 19.9984 39.4C20.5984 40.3 21.2984 41.2 22.0984 42L22.2984 42.2C22.5984 42.5 22.8984 42.7 23.1984 43C25.8984 44.1 28.9984 43.6 31.1984 41.4C33.6984 38.9 33.9984 35 32.0984 32.2C34.0984 33.7 40.1984 36.2 38.0984 44.6C38.4984 44.4 38.7984 44.2 39.1984 44C40.1984 43.4 41.0984 42.7 41.8984 41.9L42.0984 41.7C42.3984 41.4 42.6984 41.1 42.8984 40.8C43.9984 38.2 43.4984 35 41.2984 32.8C38.7984 30.3 34.8984 30 31.9984 32C33.4984 30.1 35.9984 23.8 44.5984 25.9C44.3984 25.6 44.2984 25.2 44.0984 24.9C43.4984 23.9 42.7984 23 41.8984 22.1L41.6984 21.9Z" fill="#FFE6E8"/>
</svg>
