<svg width="128" height="128" viewBox="0 0 128 128" fill="none" xmlns="http://www.w3.org/2000/svg">
<path d="M120.159 30.5692C116.299 27.6192 117.389 21.6592 113.619 18.7492C110.999 16.7192 107.059 16.9192 104.759 14.4392C101.799 11.2392 102.409 5.31917 98.0087 3.35917C93.1087 1.17917 88.4187 6.56917 86.4787 10.5692C85.1987 13.1892 84.3487 16.0392 83.4887 18.8192C82.6387 21.5792 81.9387 24.3992 81.4687 27.2492C81.1787 29.0292 81.4687 33.2992 79.6787 34.3992C77.9687 35.4492 75.0887 34.0092 73.3487 33.7492C68.8087 33.0792 64.0587 33.3392 59.5487 34.1292C53.8287 35.1292 47.6387 38.3492 43.5287 42.5792C40.5987 45.5892 38.0787 49.0392 36.3987 52.9592C33.6987 59.2492 32.6087 66.3492 33.7487 73.1292C33.8987 74.0492 34.5887 75.4292 33.8187 76.1692C32.5587 77.3892 29.5187 76.3792 28.0087 76.2392C25.6587 76.0192 23.2987 75.8692 20.9387 75.8392C16.3987 75.7892 11.7087 76.1692 7.42867 77.8492C4.73867 78.9092 1.08867 81.9392 0.668668 85.1792C-0.381332 93.3292 10.5687 93.2992 10.0287 100.799C9.58867 106.939 15.3087 109.199 20.0787 109.849C25.4387 110.589 25.2487 122.179 31.4987 124.739C36.5487 126.819 40.8687 120.319 43.2287 116.739C45.4187 113.379 47.3187 109.799 48.7787 106.029C49.5387 104.059 50.1787 102.029 50.6187 99.9592C50.8287 98.9792 51.0087 97.9792 51.0987 96.9792C51.1687 96.1092 51.0587 95.3092 51.9887 94.8892C52.7787 94.5292 54.1087 95.1892 54.9087 95.4192C55.9187 95.7092 56.9587 95.9592 57.9887 96.1592C70.5487 98.6092 86.7787 94.1992 93.3787 82.4092C97.1887 75.5892 98.6787 68.4492 97.5087 60.6992C97.1887 58.6292 96.7887 56.5092 96.1087 54.5192C95.3787 52.3492 97.5687 52.4092 99.0987 52.2992C100.849 52.1792 102.589 51.9592 104.319 51.6592C107.579 51.0992 110.809 50.2792 113.979 49.2792C118.559 47.8192 124.369 46.0492 126.739 41.3792C129.369 36.2192 123.309 32.9692 120.159 30.5692V30.5692Z" fill="#ED6C30"/>
<mask id="mask0_96672_26" style="mask-type:luminance" maskUnits="userSpaceOnUse" x="0" y="2" width="128" height="124">
<path d="M120.159 30.5692C116.299 27.6192 117.389 21.6592 113.619 18.7492C110.999 16.7192 107.059 16.9192 104.759 14.4392C101.799 11.2392 102.409 5.31917 98.0087 3.35917C93.1087 1.17917 88.4187 6.56917 86.4787 10.5692C85.1987 13.1892 84.3487 16.0392 83.4887 18.8192C82.6387 21.5792 81.9387 24.3992 81.4687 27.2492C81.1787 29.0292 81.4687 33.2992 79.6787 34.3992C77.9687 35.4492 75.0887 34.0092 73.3487 33.7492C68.8087 33.0792 64.0587 33.3392 59.5487 34.1292C53.8287 35.1292 47.6387 38.3492 43.5287 42.5792C40.5987 45.5892 38.0787 49.0392 36.3987 52.9592C33.6987 59.2492 32.6087 66.3492 33.7487 73.1292C33.8987 74.0492 34.5887 75.4292 33.8187 76.1692C32.5587 77.3892 29.5187 76.3792 28.0087 76.2392C25.6587 76.0192 23.2987 75.8692 20.9387 75.8392C16.3987 75.7892 11.7087 76.1692 7.42867 77.8492C4.73867 78.9092 1.08867 81.9392 0.668668 85.1792C-0.381332 93.3292 10.5687 93.2992 10.0287 100.799C9.58867 106.939 15.3087 109.199 20.0787 109.849C25.4387 110.589 25.2487 122.179 31.4987 124.739C36.5487 126.819 40.8687 120.319 43.2287 116.739C45.4187 113.379 47.3187 109.799 48.7787 106.029C49.5387 104.059 50.1787 102.029 50.6187 99.9592C50.8287 98.9792 51.0087 97.9792 51.0987 96.9792C51.1687 96.1092 51.0587 95.3092 51.9887 94.8892C52.7787 94.5292 54.1087 95.1892 54.9087 95.4192C55.9187 95.7092 56.9587 95.9592 57.9887 96.1592C70.5487 98.6092 86.7787 94.1992 93.3787 82.4092C97.1887 75.5892 98.6787 68.4492 97.5087 60.6992C97.1887 58.6292 96.7887 56.5092 96.1087 54.5192C95.3787 52.3492 97.5687 52.4092 99.0987 52.2992C100.849 52.1792 102.589 51.9592 104.319 51.6592C107.579 51.0992 110.809 50.2792 113.979 49.2792C118.559 47.8192 124.369 46.0492 126.739 41.3792C129.369 36.2192 123.309 32.9692 120.159 30.5692V30.5692Z" fill="white"/>
</mask>
<g mask="url(#mask0_96672_26)">
<path d="M73.2499 46.6701C73.6399 46.8501 74.0299 47.0401 74.3899 47.2501C74.6699 47.4101 75.0099 47.7801 75.3599 47.5301C75.9399 47.1201 75.5999 46.1801 75.4799 45.6501C75.3199 44.9701 75.1299 44.2701 75.0499 43.5701C74.8499 41.8601 72.8899 39.0901 75.2999 38.2601C75.9199 38.0501 76.5499 37.8001 77.1799 37.6101C77.7099 37.4501 78.2599 37.2901 78.7399 37.0601C78.9099 36.9801 79.2499 36.8601 79.3299 36.6901C79.5299 36.2201 79.0699 36.0301 78.7399 35.8601C78.4999 35.7401 78.2499 35.6501 78.0199 35.5101C76.2099 34.3601 74.1199 33.6201 72.1099 32.8701C70.2599 32.1801 68.3599 31.6101 66.4099 31.3101C64.9199 31.0801 63.1699 31.1201 61.6699 31.3301C59.7499 31.6001 58.4099 32.9401 56.6599 33.6401C55.6299 34.0501 54.5299 34.3201 53.5099 34.7701C53.1299 34.9401 52.5099 35.1301 52.2099 35.4401C51.9999 35.6601 52.1099 36.0101 52.3499 36.1701C52.5699 36.3101 52.9399 36.2801 53.1999 36.3501C54.2399 36.6401 55.3299 36.7201 56.3799 37.0201C58.0599 37.5101 57.9499 38.0601 57.6599 39.7101C57.5199 40.5001 57.4599 41.3001 57.2999 42.0801C56.9999 43.6001 56.4999 45.0001 56.3999 46.5701C56.3899 46.7801 56.4499 46.9101 56.6599 46.9601C57.1799 47.0901 57.6999 46.8001 58.1299 46.5501C58.5299 46.3301 58.9399 46.1401 59.3499 45.9101C59.8799 45.6201 60.4299 45.3701 60.9899 45.1401C61.9499 44.7501 62.8699 44.2601 63.8099 43.8601C64.6399 43.5001 65.7199 43.0301 66.6399 43.1401C67.0399 43.1801 67.5599 43.4201 67.9399 43.6001C68.2099 43.7201 68.4199 43.9201 68.6499 44.0901C68.9199 44.2801 69.2199 44.4501 69.5099 44.6301C70.1099 45.0101 70.7099 45.3801 71.3299 45.7401C71.9499 46.0701 72.6099 46.3601 73.2499 46.6701ZM71.6899 84.7201C71.5399 83.6101 71.4899 82.6801 71.8999 82.4801C72.4699 82.1901 73.8899 82.8001 74.4199 83.0001C76.1299 83.6301 77.7299 84.6601 79.5299 85.0101C80.7899 85.2501 82.1099 84.6201 83.2299 84.1401C84.4599 83.6101 85.6699 83.1101 87.0099 82.8901C87.5599 82.8001 87.9299 82.7901 88.0399 83.4401C88.1199 83.9101 87.9899 84.4001 87.8999 84.8601C87.8099 85.3001 87.6399 85.7301 87.5699 86.1801C87.4999 86.6801 87.4199 87.1601 87.2699 87.6601C87.1999 87.9001 87.1899 88.1301 87.1099 88.3801C87.0199 88.6601 86.9099 88.9201 86.8499 89.2101C86.7599 89.6601 86.5899 90.0801 86.4799 90.5201C86.2699 91.3301 85.9099 92.1301 85.3999 92.7901C84.8999 93.4401 84.5499 94.1101 83.8899 94.6301C83.2799 95.1101 82.6099 95.5001 81.8899 95.7901C81.1799 96.0801 80.4099 96.1801 79.7199 96.4901C79.2099 96.7201 78.8099 96.9601 78.2299 97.0001C76.1999 97.1301 74.1899 96.7601 72.2499 96.2301C71.2799 95.9701 70.3299 95.6601 69.3699 95.3601C68.7599 95.1701 67.3499 95.0301 66.9099 94.5701C66.0399 93.6801 68.0799 92.8701 68.6199 92.4901C68.9999 92.2201 69.4199 91.9501 69.7899 91.6401C70.3099 91.2001 70.9099 90.8701 71.4299 90.4101C72.1699 89.7601 72.2399 88.8401 72.1599 87.9101C72.0599 86.8301 71.8399 85.7801 71.6899 84.7201ZM86.2799 62.5701C86.0799 62.1901 85.3499 61.4601 85.5399 61.0101C85.7699 60.4701 86.5499 60.5501 87.0099 60.5801C87.6899 60.6201 88.3699 60.7501 89.0499 60.8801C90.3199 61.1201 91.7199 61.4501 92.9899 61.0501C94.4899 60.5801 95.2899 58.2001 96.6099 57.2801C97.3399 56.7701 100.17 64.2401 100.27 64.9701C100.44 66.2601 100.36 67.8101 100.21 69.0701C100.05 70.4201 99.2199 71.3801 98.7399 72.6201C98.5099 73.1901 98.3399 73.7701 98.1099 74.3501C97.9199 74.8301 97.7399 75.3301 97.5199 75.8001C97.3799 76.0901 97.2599 76.3901 97.1099 76.6801C97.0499 76.8001 96.9599 77.1301 96.8599 77.2201C96.4199 77.5701 95.9299 76.1001 95.7499 75.8501C95.2899 75.1901 95.0499 74.4701 94.6699 73.7701C94.5699 73.5801 94.4999 73.3301 94.3199 73.2101C93.8399 72.8801 92.7599 73.2101 92.2099 73.2901C90.9899 73.4601 89.7799 73.6901 88.5699 73.8901C87.6799 74.0301 86.7799 74.1701 85.8799 74.2601C85.6099 74.2801 85.3399 74.2701 85.1899 74.0001C85.0299 73.7201 85.2099 73.3701 85.3199 73.1101C85.5899 72.4801 85.8199 71.8301 86.1099 71.2001C86.3299 70.7101 86.5599 70.2201 86.7999 69.7401C86.9999 69.3301 87.2599 68.9601 87.4499 68.5401C87.5699 68.2801 87.6799 68.0301 87.7699 67.7601C87.8899 67.4501 88.1499 67.1001 88.1099 66.7701C88.0499 66.1701 87.7299 65.4601 87.4399 64.8901C87.0499 64.0901 86.6999 63.3401 86.2799 62.5701ZM60.1499 60.2401C60.3399 59.4701 60.2499 58.6201 60.3499 57.8501C60.5399 56.4101 60.8099 54.9801 61.1199 53.5601C61.2299 53.0701 61.4399 52.3001 62.1099 52.6701C62.6799 52.9801 63.1999 53.5901 63.5999 54.0801C64.2699 54.9001 65.2199 55.5701 65.9299 56.4001C66.8099 57.4301 67.7199 58.3501 69.1799 58.0001C69.8799 57.8401 70.5799 57.6701 71.2799 57.5101C71.7999 57.4001 72.3099 57.2801 72.8299 57.1801C73.2899 57.0901 73.7899 56.9301 74.2599 56.9401C74.5299 56.9401 74.8899 56.7601 75.1199 56.9401C75.8899 57.5401 74.8299 59.3301 74.5099 59.9201C73.9099 61.0501 73.6299 62.2601 73.3399 63.4901C73.2299 63.9701 73.0399 64.2401 73.3199 64.7201C73.5599 65.1401 73.9599 65.4501 74.2399 65.8501C74.5799 66.3401 74.9999 66.7501 75.3599 67.2101C75.6799 67.6101 75.9899 68.0101 76.2899 68.4401C76.7199 69.0801 77.4999 69.6301 77.6999 70.3901C77.6999 70.9101 77.7899 71.1701 77.1699 71.3301C76.2199 71.5701 75.1099 71.3801 74.1399 71.3301C72.1899 71.2301 70.3199 71.0901 68.4099 70.6601C68.0099 70.5701 67.6499 70.5401 67.3099 70.8001C66.1199 71.7101 65.2699 72.9701 64.3999 74.1701C63.8799 74.8801 62.9099 76.7201 61.9199 76.7701C61.5099 76.7901 61.1399 76.2001 61.0099 75.8601C59.9899 73.2201 61.2799 69.2701 58.7599 67.3601C57.5099 66.4101 55.9999 65.9901 54.6399 65.2401C54.0599 64.9201 53.5599 64.6601 54.2799 64.1401C54.6899 63.8401 55.2299 63.5901 55.6799 63.3601C56.3199 63.0301 56.9999 62.7501 57.6299 62.3901C58.0699 62.1401 58.5299 61.9201 58.9599 61.6501C59.2799 61.4501 59.7099 61.2701 59.8999 60.9201C60.0199 60.6801 60.0999 60.4601 60.1499 60.2401ZM43.2899 86.7201C43.0599 86.1801 43.0699 85.6401 43.5399 84.8401C43.9499 84.1601 44.8099 83.8401 45.4099 83.3601C45.7999 83.0501 46.2099 82.8001 46.6099 82.5201C47.1799 82.1101 47.7299 81.6401 48.2899 81.2101C48.4999 81.0501 48.7299 80.9001 48.9399 80.7501C49.1099 80.6301 49.3799 80.5001 49.5899 80.5601C49.9399 80.6501 50.0999 81.1401 50.2899 81.4201C50.5499 81.8201 50.7299 82.2401 50.9999 82.6401C51.3099 83.0901 51.5999 83.5501 51.7799 84.0501C51.9599 84.5501 52.2399 85.0001 52.4599 85.4801C52.9699 86.6001 53.2199 86.9701 54.3899 87.4101C55.9299 87.9901 57.5099 88.5601 59.0699 89.1001C59.4799 89.2401 60.0499 89.3401 59.9699 89.9401C59.9099 90.3801 59.2499 90.5101 58.9099 90.6901C57.9999 91.1901 57.0699 91.5701 56.1999 92.1601C55.2199 92.8301 53.9599 93.3101 52.8299 93.6801C51.8399 94.0001 50.7599 93.4601 49.8299 93.0601C48.5699 92.5201 47.2999 91.6201 46.3299 90.6301C45.5499 89.8401 44.7299 88.9801 44.1199 88.0601C43.7799 87.5401 43.4599 87.1301 43.2899 86.7201ZM32.0799 53.4801C33.3899 51.7301 35.8399 50.4501 37.7599 49.4001C38.5799 48.9501 39.2699 48.3201 39.9799 47.7301C40.5299 47.2801 41.6699 46.0001 42.1999 47.0001C42.5399 47.6501 42.1699 48.9101 42.0699 49.5901C41.8299 51.3201 41.5299 53.0601 41.9899 54.7801C42.1099 55.2001 42.3799 55.4201 42.6999 55.6901C43.0899 56.0201 43.4999 56.3501 43.9299 56.6201C44.1999 56.7801 44.5199 56.8501 44.7999 56.9901C45.0499 57.1201 45.2599 57.3301 45.4999 57.4501C46.0199 57.7101 46.6199 57.9501 46.9899 58.4101C47.3099 58.8101 47.3299 59.5401 46.8599 59.8301C46.5999 59.9901 46.3499 60.0101 46.0799 60.1001C45.4499 60.3201 44.7599 60.4901 44.1099 60.7401C43.3599 61.0301 42.5899 61.2601 41.8599 61.5901C41.1399 61.9001 40.1399 62.0401 39.8099 62.8501C39.4299 63.7801 39.0199 64.7701 38.7899 65.7401C38.6399 66.3501 38.3799 66.9101 38.2399 67.5101C38.1599 67.8401 38.0899 68.1701 37.9599 68.4901C37.7999 68.9201 37.7899 69.2801 37.3799 69.5301C36.4199 70.1201 34.7599 66.2701 34.4199 65.6401C34.1099 65.0601 34.0299 64.2201 33.6599 63.6601C32.9899 62.6701 31.9699 62.1901 31.3699 61.0701C30.7099 59.8601 30.4199 58.6401 30.5499 57.2601C30.6699 55.9401 31.2199 54.6101 32.0799 53.4801Z" fill="#FCC21B"/>
</g>
<path d="M30.1311 92.3506C28.9411 92.1806 27.6411 90.9506 27.4911 89.7106C27.3011 88.2406 28.3511 86.8406 29.4911 86.0206C31.5811 84.5006 34.7411 84.0806 37.2711 84.1406C38.2211 84.1606 38.8711 84.3006 39.2911 84.5206C42.8011 86.3506 32.6611 92.7106 30.1311 92.3506ZM42.2711 98.2206C40.6211 100.101 38.8811 99.9206 37.8811 98.8306C36.8611 97.7106 36.6311 95.6206 38.0911 93.7606C38.8711 92.7606 41.5611 89.1006 42.8811 89.3006C46.7211 89.8606 43.5811 96.7106 42.2711 98.2206ZM87.8911 40.9406C83.8411 43.1206 85.8911 33.4506 86.2911 32.2706C87.6211 28.3606 90.5011 28.0906 92.1411 29.6806C93.3511 30.8406 93.8611 33.0206 92.5511 35.4606C91.4611 37.5206 90.0111 39.7906 87.8911 40.9406ZM101.511 44.1006C100.161 45.3306 98.1611 45.4806 96.4811 45.9306C95.6011 46.1606 94.6511 46.1906 93.7511 46.1706C91.0711 46.1006 90.4511 45.2406 90.9311 44.1306C91.8311 42.0306 96.6811 39.0206 98.9411 38.8206C99.9811 38.7306 101.291 38.8506 101.841 39.8706C102.581 41.2606 102.721 42.9806 101.511 44.1006Z" fill="#855C52"/>
<path d="M50.2915 49.33C48.5315 48.73 45.9415 50.32 44.5615 52.16C42.8515 54.44 42.0115 57.43 41.9015 60.25C41.8015 62.67 42.3515 67.23 45.3315 67.9C46.7915 68.22 47.5915 67.17 48.2215 66.02C49.3815 63.94 49.1415 61.27 49.7915 59.01C50.4615 56.69 54.3515 50.7 50.2915 49.33Z" fill="white"/>
</svg>
