<svg width="32" height="32" viewBox="0 0 32 32" fill="none" xmlns="http://www.w3.org/2000/svg">
<path d="M13 4C13 2.9 12.1 2 11 2C9.9 2 9 2.9 9 4C9 4.8 8.03 5.2 7.46 4.64L7.41 4.59C6.63 3.81 5.36 3.81 4.58 4.59C3.8 5.37 3.8 6.64 4.58 7.42L4.63 7.47C5.2 8.03 4.8 9 4 9C2.9 9 2 9.9 2 11C2 12.1 2.9 13 4 13H13V4Z" fill="#F8312F"/>
<path d="M19.0011 24.4881C18.0375 24.8281 17.0229 25.0012 16.0011 25.0001C15.1771 25.0001 14.3801 24.8901 13.6211 24.6821C14.5133 24.9244 15.4374 25.0282 16.3611 24.9901C15.778 23.8392 15.5558 22.5391 15.7235 21.2599C15.8912 19.9806 16.441 18.7818 17.3011 17.8201C18.2426 16.763 19.5071 16.0466 20.8979 15.7826C22.2886 15.5186 23.7277 15.7216 24.9911 16.3601C24.9968 16.2402 25.0002 16.1201 25.0011 16.0001C25.0011 17.0521 24.8211 18.0621 24.4891 19.0001L24.2291 19.2101H22.5031C20.5731 19.2101 19.2351 20.5541 19.2351 22.4841V24.2401L19.0011 24.4881Z" fill="#FCD53F"/>
<path d="M24.6618 13.5403C23.8284 13.2884 22.9625 13.1603 22.0918 13.1603C19.5518 13.1603 17.1218 14.2503 15.4318 16.1503C14.6382 17.0416 14.0297 18.0818 13.6418 19.2103C13.2692 20.2996 13.113 21.4512 13.1818 22.6003C13.2218 23.3003 13.3418 23.9903 13.5418 24.6603C12.7142 24.4255 11.9247 24.0725 11.1978 23.6123C11.1758 23.5643 11.0678 23.4903 11.0478 23.4423C9.6098 20.1913 10.0508 16.1943 12.5618 13.3683C14.4018 11.2983 17.0968 10.1843 19.6668 10.1843C20.9748 10.1843 22.1728 10.4693 23.3898 11.0223C23.4298 11.0403 23.5728 11.1923 23.6118 11.2103C23.1718 10.5103 22.6218 9.86034 21.9818 9.28034C21.267 8.64017 20.4531 8.12009 19.5718 7.74034C19.4978 7.74034 19.4618 7.80034 19.3888 7.80234C17.7601 7.8366 16.156 8.20762 14.6777 8.89207C13.1993 9.57651 11.8787 10.5596 10.7988 11.7793C9.73823 12.9701 8.92602 14.3606 8.4098 15.8693C8.0228 17.0113 7.8598 18.1593 7.8288 19.3653C7.8268 19.4333 7.7328 19.4893 7.7318 19.5573C7.25196 18.4276 7.0083 17.2116 7.01579 15.9841C7.02329 14.7567 7.28178 13.5437 7.77538 12.4199C8.26898 11.2961 8.98725 10.2851 9.88603 9.44907C10.7848 8.61308 11.8451 7.96978 13.0017 7.55873C14.1583 7.14767 15.3867 6.97754 16.6115 7.05881C17.8363 7.14008 19.0315 7.47102 20.1236 8.03128C21.2157 8.59155 22.1817 9.36929 22.9622 10.3167C23.7426 11.2641 24.321 12.3611 24.6618 13.5403Z" fill="#FCD53F"/>
<path d="M12.6905 13.4602C13.5645 12.4749 14.6378 11.6863 15.8393 11.1468C17.0409 10.6072 18.3433 10.3289 19.6605 10.3302C21.0105 10.3302 22.3605 10.6202 23.6105 11.2102C23.1705 10.5102 22.6205 9.86023 21.9805 9.28023C21.2656 8.64006 20.4517 8.11998 19.5705 7.74023C17.9405 7.75023 16.3605 8.09023 14.8605 8.74023C13.2805 9.43023 11.9005 10.4402 10.7505 11.7302C9.68047 12.9302 8.88047 14.3102 8.36047 15.8202C7.95047 17.0302 7.74047 18.2902 7.73047 19.5702C8.23047 20.7402 8.99047 21.8202 10.0105 22.7202C10.3905 23.0602 10.7905 23.3602 11.2005 23.6202C9.68047 20.3402 10.1405 16.3302 12.6905 13.4602ZM19.0005 28.0002C19.0005 29.1002 19.9005 30.0002 21.0005 30.0002C22.1005 30.0002 23.0005 29.1002 23.0005 28.0002C23.0005 27.2002 23.9705 26.8002 24.5405 27.3602L24.5905 27.4102C25.3705 28.1902 26.6405 28.1902 27.4205 27.4102C28.2005 26.6302 28.2005 25.3602 27.4205 24.5802L27.3705 24.5302C26.8005 23.9702 27.2005 23.0002 28.0005 23.0002C29.1005 23.0002 30.0005 22.1002 30.0005 21.0002C30.0005 19.9002 29.1005 19.0002 28.0005 19.0002H22.5005C20.5705 19.0002 19.0005 20.5702 19.0005 22.5002V28.0002Z" fill="#F8312F"/>
<path d="M17.3318 17.8354C15.5218 19.8654 15.2018 22.7004 16.3618 24.9904C15.4218 25.0304 14.4718 24.9204 13.5418 24.6604C13.3418 23.9904 13.1518 23.2914 13.1118 22.5914C13.0418 21.4314 13.2358 20.2194 13.6058 19.1294C13.9958 17.9994 14.5938 17.0294 15.3938 16.1294C16.2365 15.185 17.2681 14.4281 18.422 13.9079C19.5758 13.3876 20.8261 13.1156 22.0918 13.1094C22.9718 13.1094 23.8318 13.2904 24.6618 13.5404C24.9218 14.4604 25.0318 15.4104 24.9918 16.3604C24.0818 15.9004 23.0818 15.7054 22.0918 15.7054C20.3318 15.7054 18.6018 16.4154 17.3318 17.8354Z" fill="#F8312F"/>
</svg>
