<svg width="512" height="512" viewBox="0 0 512 512" fill="none" xmlns="http://www.w3.org/2000/svg">
<path d="M509.559 332.873C508.194 345.247 496.909 355.191 480.317 360.747C474.651 362.625 469.905 366.576 467.03 371.807C464.155 377.038 463.363 383.163 464.814 388.953C469.017 405.939 466.671 420.796 456.956 428.58C439.702 442.406 405.74 428.688 381.1 397.939C367.668 381.177 359.79 362.819 358.188 347.343C317.62 392.771 250.081 407.002 193.379 377.879C134.384 347.578 106.7 280.403 124.007 218.942C110.08 225.901 90.3388 229.099 68.9648 226.742C29.7998 222.422 0.0148425 201.104 2.43884 179.127C3.80384 166.753 15.0888 156.809 31.6808 151.253C37.3466 149.374 42.0928 145.423 44.968 140.192C47.8431 134.961 48.6347 128.837 47.1838 123.047C42.9808 106.061 45.3268 91.2037 55.0418 83.4197C72.2958 69.5937 106.258 83.3117 130.898 114.061C144.309 130.797 152.183 149.125 153.802 164.587C194.37 119.152 261.914 104.918 318.619 134.042C377.644 164.358 405.325 231.586 387.964 293.072C401.893 286.104 421.646 282.9 443.033 285.259C482.198 289.578 511.983 310.896 509.559 332.873Z" fill="#00B1FF"/>
<path d="M207.845 192.707C200.372 192.707 193.066 188.988 188.788 182.199C182.163 171.686 185.315 157.793 195.829 151.168C216.235 138.31 239.809 132.643 262.218 135.223C274.563 136.642 283.42 147.801 282 160.146C280.58 172.491 269.417 181.346 257.077 179.928C244.995 178.54 231.415 181.932 219.819 189.24C216.236 191.505 212.084 192.707 207.845 192.707Z" fill="#76DFFF"/>
<path d="M124.007 218.939C117.915 221.981 110.713 224.305 102.746 225.758C105.573 212.074 110.246 198.837 116.638 186.41C125.014 170.102 135.901 155.928 148.579 144.105C151.372 151.216 153.126 158.147 153.801 164.585C146.031 173.293 139.404 182.956 134.079 193.34C129.876 201.516 126.502 210.092 124.007 218.939ZM387.961 293.075C385.47 301.89 382.106 310.434 377.917 318.579C372.59 328.968 365.96 338.634 358.186 347.344C358.856 353.801 360.613 360.758 363.417 367.894C376.094 356.071 386.982 341.897 395.358 325.589C401.75 313.163 406.423 299.926 409.25 286.241C401.271 287.698 394.059 290.027 387.961 293.075Z" fill="#0082BC"/>
</svg>
