<svg width="64" height="64" viewBox="0 0 64 64" fill="none" xmlns="http://www.w3.org/2000/svg">
<g clip-path="url(#clip0_96672_46)">
<path d="M55.3983 57.1794C55.9793 55.8464 56.2853 54.3664 56.5613 52.9434C56.8673 51.3834 56.7193 48.9484 57.9923 47.8544C58.7993 47.1594 60.6023 47.2154 61.5983 46.8254C62.8773 46.3194 63.9103 45.0474 63.7503 43.6154C62.9123 35.8354 50.9013 40.4464 46.4383 38.7144C46.3179 38.6664 46.1929 38.6309 46.0653 38.6084C45.9263 37.3254 43.9313 36.3534 42.7143 37.6304C40.5013 39.9474 42.2153 42.5934 43.8183 44.6504C45.9173 47.3314 46.0053 49.9824 46.1173 53.2624C46.2043 55.7334 46.4183 59.3334 48.8413 60.7244C51.8303 62.4314 54.2923 59.7394 55.3983 57.1814" fill="#CCCBCB"/>
<path d="M55.8694 55.8821C54.9274 56.2651 53.8694 56.2571 52.7224 55.6041C50.2994 54.2141 50.0784 50.6121 49.9974 48.1461C49.8814 44.8641 49.7964 42.2121 47.6934 39.5291L47.2624 38.9621C46.9819 38.9053 46.7063 38.826 46.4384 38.7251C46.3175 38.6771 46.1923 38.641 46.0644 38.6171C45.9204 37.3341 43.9344 36.3631 42.7134 37.6411C40.5044 39.9601 42.2104 42.6081 43.8174 44.6611C45.9164 47.3441 46.0054 49.9941 46.1174 53.2751C46.2034 55.7461 46.4174 59.3481 48.8424 60.7361C51.8274 62.4471 54.2894 59.7541 55.3944 57.1981C55.5774 56.7721 55.7314 56.3371 55.8694 55.8861" fill="#AAAAAA"/>
<path d="M9.70308 3.62529C9.00408 4.89629 8.55408 6.33929 8.13908 7.73029C7.69008 9.25229 7.59608 11.6903 6.23208 12.6573C5.36008 13.2703 3.57008 13.0403 2.54208 13.3373C1.21708 13.7153 0.0710831 14.8843 0.0860831 16.3213C0.178083 24.1453 12.5731 20.7123 16.8491 22.8643C16.9721 22.9263 17.0921 22.9703 17.2131 23.0083C17.2321 24.2983 19.1181 25.4563 20.4511 24.3013C22.8721 22.2073 21.4291 19.4073 20.0271 17.2113C18.1971 14.3393 18.3631 11.6913 18.5671 8.41629C18.7171 5.94929 18.8481 2.34729 16.5681 0.729288C13.7601 -1.25771 11.0541 1.18629 9.70308 3.62529Z" fill="#CCCBCB"/>
<path d="M20.6362 18.4951C15.3122 17.8111 6.49619 19.2151 6.41719 12.6181C6.41519 12.5911 6.41919 12.5641 6.41919 12.5371C6.33324 12.6254 6.23916 12.7055 6.13819 12.7761C5.27319 13.3871 3.48019 13.1561 2.45219 13.4521C1.13419 13.8321 -0.016814 15.0051 0.000185961 16.4371C0.089186 24.2641 12.4872 20.8281 16.7612 22.9821C16.8842 23.0421 17.0072 23.0901 17.1212 23.1231C17.1442 24.4131 19.0302 25.5711 20.3682 24.4151C22.3782 22.6771 21.7222 20.4561 20.6362 18.4951Z" fill="#AAAAAA"/>
<path d="M48.1309 39.8766C42.5619 47.2426 31.3139 48.1226 23.0109 41.8446C14.7059 35.5676 12.4949 24.5026 18.0649 17.1346C23.6389 9.7676 34.8859 8.8856 43.1849 15.1646C51.4849 21.4456 53.6989 32.5076 48.1269 39.8766" fill="#B03E81"/>
<path d="M31.4277 43.5206C23.1317 37.2396 20.9167 26.1796 26.4917 18.8106C29.4537 14.8946 34.0187 12.8146 38.8957 12.6646C31.3337 9.34063 22.6877 10.9586 18.0227 17.1276C12.4527 24.4906 14.6617 35.5546 22.9637 41.8336C26.8507 44.7736 31.3827 46.1456 35.6797 46.0146C34.171 45.3499 32.7442 44.513 31.4277 43.5206Z" fill="#BB4A92"/>
<path d="M32.1408 25.5296C38.9328 30.6716 43.8768 36.7296 46.1108 42.0476C46.8556 41.3939 47.5324 40.6665 48.1308 39.8766C53.7028 32.5076 51.4888 21.4456 43.1898 15.1646C34.8868 8.8856 23.6398 9.7676 18.0698 17.1346C17.9198 17.3386 17.7748 17.5426 17.6328 17.7526C22.2148 19.2136 27.2748 21.8506 32.1448 25.5296" fill="#CCCBCB"/>
<path d="M43.0191 15.1407C39.2501 12.2887 34.8781 10.9207 30.7031 10.9557C33.138 11.6688 35.4217 12.8218 37.4411 14.3577C45.1491 20.1877 47.5991 30.1457 43.4511 37.4377C44.4781 38.9997 45.3151 40.5417 45.9361 42.0237C46.6813 41.3685 47.3581 40.6395 47.9561 39.8477C53.5311 32.4837 51.3161 21.4217 43.0161 15.1427" fill="#D3D3D3"/>
<path d="M25.5699 16.4127C28.7769 13.8047 34.2969 14.1477 37.7039 16.3357C38.6749 16.9657 39.8079 15.5477 38.8239 14.9157C34.7379 12.2867 28.3729 11.7977 24.4779 14.9657C23.5709 15.7007 24.6589 17.1487 25.5699 16.4127ZM40.0509 40.5547C36.6649 42.9507 31.1759 42.1527 27.9409 39.7517C27.0009 39.0577 25.8779 40.4807 26.8169 41.1747C30.7369 44.0797 37.0539 44.8937 41.1389 41.9997C42.0959 41.3237 41.0009 39.8807 40.0489 40.5547" fill="white"/>
</g>
<defs>
<clipPath id="clip0_96672_46">
<rect width="64" height="64" fill="white"/>
</clipPath>
</defs>
</svg>
